<?xml version="1.0" encoding="utf-8"?>
<!-- Generator: Adobe Illustrator 26.1.0, SVG Export Plug-In . SVG Version: 6.00 Build 0)  -->
<svg version="1.1" id="Layer_4" xmlns="http://www.w3.org/2000/svg" xmlns:xlink="http://www.w3.org/1999/xlink" x="0px" y="0px"
	 viewBox="0 0 1920 1920" style="enable-background:new 0 0 1920 1920;" xml:space="preserve">
<style type="text/css">
	.st0{fill:url(#SVGID_1_);}
</style>
<linearGradient id="SVGID_1_" gradientUnits="userSpaceOnUse" x1="9.094947e-13" y1="959.8561" x2="1919.9514" y2="959.8561">
	<stop  offset="0" style="stop-color:#004B9F"/>
	<stop  offset="1" style="stop-color:#63C83E"/>
</linearGradient>
<path class="st0" d="M276.32,1264.09v131.78c0,9.81-8.93,17.21-18.57,15.37c-62.74-11.99-262.7-70.85-257.66-333.77
	c5.77-300.47,257.04-337.03,275.19-339.28c0.65-0.08,1.29-0.12,1.94-0.12h599.54c11.73,0,19.28,12.42,13.89,22.84L826.7,884.35
	c-2.67,5.16-7.99,8.41-13.8,8.45l-505.92,2.9c-13.46,1.6-19.53,4.64-30.28,9.3c-33.79,14.65-96.52,75.59-96.75,171.06
	c-0.24,104.34,67.75,159.97,89.66,175.18C273.81,1254.17,276.32,1258.96,276.32,1264.09z M532.89,1119.97
	c-115.99,0-210.02,94.03-210.02,210.02c0,115.99,94.03,210.02,210.02,210.02s210.02-94.03,210.02-210.02
	C742.9,1214,648.88,1119.97,532.89,1119.97z M1525.78,1119.97c-115.99,0-210.02,94.03-210.02,210.02
	c0,115.99,94.03,210.02,210.02,210.02c115.99,0,210.02-94.03,210.02-210.02C1735.79,1214,1641.77,1119.97,1525.78,1119.97z
	 M800.6,1272.02v103.65c0,9.22,7.47,16.69,16.69,16.69h149.45c7.77,0,14.51-5.36,16.26-12.92l97.55-421.23
	c4.06-17.53,29.17-17.11,32.64,0.56l44.04,224.81c1.53,7.83,8.4,13.48,16.38,13.48h76.87c3.59,0,7.08-1.16,9.96-3.3l428.3-318.72
	c9.98-7.43,24.28-1.72,26.41,10.54l83.89,483.75c0.07,0.4,0.12,0.79,0.16,1.19c0.87,8.75,2.92,21.18,11.51,21.72l90.23-0.81
	c11.05,0.69,20.07-8.7,18.93-19.71l-63.84-618.65c-0.88-8.52-8.06-14.99-16.63-14.98l-172.9,0.31c-3.63,0.01-7.16,1.2-10.05,3.39
	l-376.21,285.23c-9.8,7.43-23.99,2.07-26.44-9.97l-54.01-265.62c-1.58-7.78-8.42-13.36-16.35-13.36h-168.89
	c-7.57,0-14.18,5.09-16.13,12.4L867.6,1242.38c-1.92,7.22-8.4,12.28-15.86,12.4l-34.72,0.55
	C807.91,1255.48,800.6,1262.91,800.6,1272.02z M878.02,502.07h311.73c260.11,10.12,348.17,164.47,348.17,164.47h172.87
	c-181.88-309.71-516.48-286.43-516.48-286.43s0,0-316.79,0S372.47,666.54,372.47,666.54h160.42
	C694.83,488.91,878.02,502.07,878.02,502.07z"/>
</svg>
